<svg width="50" height="50" viewBox="0 0 50 50" fill="none" xmlns="http://www.w3.org/2000/svg">
<path fill-rule="evenodd" clip-rule="evenodd" d="M14.3181 0H12.2228L10.1274 0.232019L8.38133 0.696056L6.51881 1.50812L4.88911 2.5522L3.84144 3.48028L2.79378 4.64037L1.97892 5.68445L0.931258 7.65661L0.349222 9.39675L0 11.4849V13.4571L0.349222 15.6613L0.814851 17.0534L1.51329 18.5615L2.56096 20.1856L3.37581 21.1137L4.88911 22.5058L6.16959 23.3179L8.0321 24.2459L10.011 24.826L10.8259 25.058L9.19618 25.406L7.21725 26.1021L5.58755 27.0302L4.07426 28.1903L2.79378 29.5824L1.74611 31.0905L0.814851 32.9466L0.232815 34.9188L0 36.5429V38.5151L0.349222 40.6032L0.931258 42.3434L1.6297 43.7355L2.79378 45.4756L4.30707 46.9838L5.82037 48.1438L7.33366 48.9559L9.07977 49.652L10.8259 50H25.0276V35.8469L24.9112 35.0348L24.3291 33.0626L23.5143 31.3225L22.3502 29.5824L20.8369 28.0742L19.6728 27.1462L17.9267 26.1021L16.4134 25.522L14.3181 25.058V24.942L15.1329 24.826L16.7627 24.3619L18.7416 23.4339L20.4877 22.2738L22.1174 20.6497L23.1651 19.2575L23.9799 17.7494L24.6783 15.8933L25.0276 14.1531V0H20.4877L20.3713 0.116009L20.2549 13.6891L19.7892 15.4292L19.3236 16.3573L18.3924 17.6334L16.9955 18.9095L15.4822 19.7216L13.7361 20.1856H11.2915L10.2438 19.9536L8.84696 19.3735L7.56647 18.5615L6.63522 17.6334L5.70396 16.3573L5.12192 14.9652L4.7727 13.3411V11.4849L5.12192 9.9768L5.93677 8.35267L6.63522 7.42459L8.0321 6.14849L9.89462 5.22042L11.4079 4.87239L14.4345 4.75638V0.116009L14.3181 0ZM13.738 29.6984H11.4098L10.0129 30.0464L8.49964 30.7425L7.10276 31.7866L6.28791 32.7146L5.47305 33.9907L4.89102 35.6149L4.6582 37.471L4.89102 39.4432L5.35665 40.7193L6.28791 42.3434L7.21916 43.2715L8.26683 44.0836L10.1293 45.0116L11.8755 45.3597H20.3732V36.4269L20.024 34.9188L19.3255 33.4107L18.3943 32.2506L16.9974 30.9745L15.1349 30.0464L13.738 29.6984Z" fill="#05868E"/>
<path fill-rule="evenodd" clip-rule="evenodd" d="M35.6819 50H37.7772L39.8726 49.768L41.6187 49.3039L43.4812 48.4919L45.1109 47.4478L46.1586 46.5197L47.2062 45.3596L48.0211 44.3155L49.0687 42.3434L49.6508 40.6032L50 38.5151V36.5429L49.6508 34.3387L49.1851 32.9466L48.4867 31.4385L47.439 29.8144L46.6242 28.8863L45.1109 27.4942L43.8304 26.6821L41.9679 25.7541L39.989 25.174L39.1741 24.942L40.8038 24.594L42.7827 23.8979L44.4124 22.9698L45.9257 21.8097L47.2062 20.4176L48.2539 18.9095L49.1851 17.0534L49.7672 15.0812L50 13.4571V11.4849L49.6508 9.39676L49.0687 7.65662L48.3703 6.2645L47.2062 4.52436L45.6929 3.01624L44.1796 1.85615L42.6663 1.04409L40.9202 0.34803L39.1741 3.8147e-06H24.9724V14.1531L25.0888 14.9652L25.6709 16.9374L26.4857 18.6775L27.6498 20.4176L29.1631 21.9258L30.3272 22.8538L32.0733 23.8979L33.5866 24.478L35.6819 24.942V25.058L34.8671 25.174L33.2373 25.6381L31.2584 26.5661L29.5123 27.7262L27.8826 29.3503L26.8349 30.7425L26.0201 32.2506L25.3217 34.1067L24.9724 35.8469V50H29.5123L29.6287 49.884L29.7451 36.3109L30.2108 34.5708L30.6764 33.6427L31.6076 32.3666L33.0045 31.0905L34.5178 30.2784L36.2639 29.8144H38.7085L39.7562 30.0464L41.153 30.6265L42.4335 31.4385L43.3648 32.3666L44.296 33.6427L44.8781 35.0348L45.2273 36.6589V38.5151L44.8781 40.0232L44.0632 41.6473L43.3648 42.5754L41.9679 43.8515L40.1054 44.7796L38.5921 45.1276L35.5655 45.2436V49.884L35.6819 50ZM36.262 20.3019H38.5902L39.9871 19.9538L41.5004 19.2578L42.8972 18.2137L43.7121 17.2856L44.5269 16.0095L45.109 14.3854L45.3418 12.5292L45.109 10.5571L44.6434 9.28097L43.7121 7.65685L42.7808 6.72877L41.7332 5.91671L39.8707 4.98863L38.1245 4.6406H29.6268V13.5733L29.976 15.0814L30.6745 16.5896L31.6057 17.7496L33.0026 19.0257L34.8651 19.9538L36.262 20.3019Z" fill="#05868E"/>
</svg>
