<svg width="70" height="115" viewBox="0 0 70 115" fill="none" xmlns="http://www.w3.org/2000/svg">
<g id="&#60;Group&#62;">
<path id="&#60;Path&#62;" d="M34.9815 57.9456C34.4122 57.9456 33.9061 57.5028 33.9061 56.8702C33.9061 56.2376 34.4122 55.7315 34.9815 55.7315C35.6141 55.7315 36.1202 56.2376 36.1202 56.8702C36.1202 57.5028 35.6141 57.9456 34.9815 57.9456Z" fill="#4D436C"/>
<g id="&#60;Group&#62;_2">
<path id="&#60;Compound Path&#62;" d="M25.0497 77.1131C24.3328 76.7757 23.5947 76.5227 22.8356 76.354C21.1276 75.9744 19.3564 75.9744 18.7238 75.9744C15.8138 76.1642 12.8407 77.3661 10.3103 80.023C-1.89873 92.0423 15.371 111.21 28.6555 100.456C31.6919 105.01 28.1494 110.64 22.5193 110.134C19.5461 109.881 8.98187 109.375 11.702 114.436C13.2835 115.954 14.5487 113.93 16.2567 113.677C18.6605 113.044 21.3174 113.867 23.7845 113.93C31.945 114.246 36.4996 103.555 31.2491 97.6091C37.0689 89.4486 32.2613 80.3393 25.0497 77.1131ZM23.911 99.0008C11.8285 103.998 4.04765 85.7163 16.1302 80.5291C28.2127 75.5316 35.9303 93.8135 23.911 99.0008Z" fill="#846EBD"/>
<path id="&#60;Compound Path&#62;_2" fill-rule="evenodd" clip-rule="evenodd" d="M69.7108 0.126613C69.2048 1.77135 68.8884 3.41609 68.2558 4.99757C67.6232 6.70557 66.6744 8.28706 65.7887 9.9318C62.4993 16.321 59.2098 22.7102 55.9203 29.0361C53.3899 33.8438 50.8595 38.525 48.3292 43.2694C47.4857 44.7876 46.6634 46.3269 45.8621 47.8873C44.4282 50.5442 42.9943 53.2011 41.5605 55.858C41.2442 56.4906 41.0544 57.4395 41.2442 58.1353C41.5605 59.3373 42.2563 60.4759 42.8256 61.5513C43.7113 63.1539 44.5758 64.7354 45.4193 66.2958C46.9375 68.9948 48.4346 71.6939 49.9106 74.393C50.2059 74.9412 50.5011 75.4684 50.7963 75.9744C48.3924 75.7214 46.4947 76.2907 46.4947 76.2907H46.3049C46.1784 75.9112 45.9886 75.5949 45.7988 75.2153C45.1662 73.8869 44.4071 72.4952 43.7113 71.1035C43.5215 70.7872 43.395 70.4709 43.1419 70.2178C42.7624 69.8383 42.4039 69.4587 42.0665 69.0792C40.0844 67.0971 37.8703 65.4101 35.4243 64.0184C35.2978 63.9552 35.1713 63.9552 34.9815 63.8919C34.8128 63.9341 34.6863 63.9763 34.6019 64.0184C32.1559 65.4101 29.9418 67.0971 27.9597 69.0792C27.5802 69.4587 27.2217 69.8383 26.8843 70.2178C26.6313 70.4709 26.5047 70.7872 26.315 71.1035C25.6191 72.4952 24.86 73.8869 24.2274 75.2153C24.0166 75.5949 23.8479 75.9533 23.7213 76.2907H22.7725C22.8146 76.3329 22.8357 76.354 22.8357 76.354C21.1277 75.9744 19.3564 75.9744 18.7239 75.9744C18.8925 75.9323 19.0612 75.9112 19.2299 75.9112C19.5251 75.4051 19.7993 74.899 20.0523 74.393C21.5705 71.6939 23.0677 68.9948 24.5437 66.2958C25.4293 64.7354 26.2939 63.1539 27.1373 61.5513C27.7699 60.4759 28.4025 59.3373 28.7821 58.1353C28.9719 57.4395 28.7821 56.4906 28.4025 55.858C27.0108 53.2011 25.6191 50.5442 24.1642 47.8873C23.3207 46.3269 22.4983 44.7876 21.697 43.2694C19.1034 38.525 16.573 33.8438 14.1059 29.0361C10.7532 22.7102 7.46371 16.321 4.17423 9.9318C3.35186 8.28706 2.40299 6.70557 1.70714 4.99757C1.13781 3.41609 0.758244 1.77135 0.31543 0.126613C0.399775 0.0844401 0.505207 0.0422644 0.631726 9.15527e-05C2.8458 2.97328 5.05987 5.94646 7.27395 8.98291C9.10846 11.5133 10.8165 14.0436 12.651 16.574C17.3954 23.153 22.2031 29.7319 26.9476 36.3109C28.5923 38.5882 30.237 40.8656 31.8818 43.1429C32.4511 43.902 32.9572 44.6611 33.5265 45.4202C33.9904 46.0106 34.4754 46.2848 34.9815 46.2426C35.5297 46.2848 36.0358 46.0106 36.4997 45.4202C37.0058 44.6611 37.5751 43.902 38.1444 43.1429C39.7892 40.8656 41.4339 38.5882 43.0787 36.3109C47.8442 29.7319 52.6097 23.153 57.3753 16.574C59.1465 14.0436 60.9178 11.5133 62.7523 8.98291C64.9664 5.94646 67.1805 2.97328 69.3945 9.15527e-05C69.4789 0.0422644 69.5843 0.0844401 69.7108 0.126613ZM38.524 55.605C38.2077 54.5928 37.3221 53.7072 36.2467 53.3276C35.8039 53.2011 35.4243 53.1379 34.9815 53.1379C34.6019 53.1379 34.1591 53.2011 33.7795 53.3276C32.7041 53.7072 31.8185 54.5928 31.5022 55.605C30.6166 58.1986 32.5776 60.6024 34.9815 60.6024C37.4486 60.6024 39.3464 58.1986 38.524 55.605Z" fill="#4D436C"/>
<path id="&#60;Compound Path&#62;_3" d="M52.5674 76.2907C52.2722 76.2063 51.977 76.1431 51.6818 76.1009C51.3866 76.0587 51.0914 76.0166 50.7962 75.9744C48.3923 75.7214 46.4946 76.2907 46.4946 76.2907C44.3437 76.86 42.1929 78.0619 40.2952 80.023C28.1494 92.0422 45.4191 111.21 58.7036 100.456C61.74 105.01 58.1975 110.64 52.5674 110.134C49.531 109.881 38.9667 109.375 41.6868 114.436C43.3316 115.954 44.5968 113.93 46.3048 113.677C48.7086 113.044 51.3655 113.867 53.7694 113.93C61.9931 114.246 66.5477 103.555 61.234 97.609C67.7497 88.4997 61.1074 78.2517 52.5674 76.2907ZM53.8959 99.0008C41.8766 103.998 34.0957 85.7163 46.115 80.5291C58.1975 75.5316 65.9152 93.8135 53.8959 99.0008Z" fill="#846EBD"/>
<path id="&#60;Path&#62;_2" d="M36.1201 56.8701C36.1201 57.5027 35.614 57.9455 34.9814 57.9455C34.4121 57.9455 33.906 57.5027 33.906 56.8701C33.906 56.2376 34.4121 55.7315 34.9814 55.7315C35.614 55.7315 36.1201 56.2376 36.1201 56.8701Z" fill="#4D436C"/>
</g>
</g>
</svg>
