<svg xmlns="http://www.w3.org/2000/svg" width="94" height="57" fill="none" viewBox="0 0 94 57"><path fill="#fff" d="M41.591 0h3.181l.08.08v34.196h-3.34V.08l.08-.08z"></path><path fill="#fff" fill-rule="evenodd" d="M56.94 0h-1.432l-1.431.16-1.193.317-1.272.557-1.114.716-.715.636-.716.795-.557.716-.716 1.352-.397 1.193-.239 1.431v1.352l.239 1.511.318.954.477 1.034.716 1.114.556.636 1.034.954.875.557 1.273.636 1.351.398.557.159-1.113.238-1.352.477-1.114.637-1.033.795-.875.954-.716 1.034-.636 1.272-.398 1.352-.159 1.114v1.352l.239 1.431.397 1.193.478.954.795 1.193 1.034 1.034 1.034.795 1.033.557 1.193.477 1.193.239h9.702v-9.702l-.08-.557-.397-1.352-.557-1.193-.795-1.193-1.034-1.034-.795-.636-1.193-.716-1.034-.397-1.431-.318v-.08l.557-.08 1.113-.317 1.352-.637 1.193-.795 1.113-1.113.716-.955.557-1.034.477-1.272.238-1.193V0h-3.101l-.08.08-.08 9.304-.317 1.193-.319.636-.636.875-.954.875-1.034.556-1.193.319h-1.67l-.715-.16-.955-.397-.875-.557-.636-.636-.636-.875-.398-.954-.238-1.114V7.873l.238-1.034.557-1.113.477-.636.954-.875 1.273-.636 1.034-.239 2.067-.08V.08L56.94 0zm-.397 20.359h-1.59l-.955.238-1.034.477-.954.716-.557.636-.556.875-.398 1.114-.16 1.272.16 1.352.318.875.636 1.113.636.636.716.557 1.273.636 1.192.239h5.806V24.97l-.239-1.034-.477-1.034-.636-.795-.954-.875-1.273-.636-.954-.238zM8.986 0h30.14l.08.08v9.304l-.238 1.432-.477 1.351-.557 1.034-.716.955-1.113 1.113-1.193.795-1.193.557-1.352.398-.557.159 1.114.238 1.352.477 1.113.637.795.636.796.715.795 1.034.716 1.273.477 1.431.159.716.08.716v9.225h-9.782l-1.114-.239-1.272-.477-1.034-.557-1.034-.795-1.034-1.034-.795-1.193-.636-1.352-.318-1.113-.16-1.193V25.21l.16-1.273.397-1.352.637-1.272.715-1.034.875-.954 1.034-.795.954-.557 1.193-.477 1.432-.318-.08-.08-1.113-.238-.954-.319-1.273-.636-.954-.715-.955-.875-.715-.955-.716-1.352-.398-1.192-.238-1.511V8.112l.159-1.273.397-1.272.637-1.273.636-1.033-15.349.08-1.272.317-1.113.557-1.034.795-.637.716-.636 1.113-.397 1.034-.16.875V10.1l.24 1.193.397 1.034.636.954.477.556.16.08v.16l.317.158.796.557 1.113.477.954.239 3.022.08 1.59.317 1.273.477 1.193.637.954.715.955.875.795 1.034.716 1.193.477 1.193.318 1.352.08.636v1.829l-.24 1.352-.476 1.431-.557 1.114-.795 1.113-.875.954-.954.796-1.193.715-1.352.557-1.193.318-.477.08H0v-3.181l11.213-.08 1.273-.318 1.113-.557.954-.715.716-.796.636-1.113.318-.795.239-1.273v-1.192l-.318-1.432-.636-1.272-.557-.716-.636-.636-1.114-.716-1.034-.398-1.192-.238-2.943-.08-1.51-.318-1.194-.477-1.272-.716-.795-.636-.796-.716-.795-.954-.716-1.193-.636-1.59L0 10.577V8.43l.239-1.352.477-1.352.556-1.113.796-1.114.874-.954.875-.716.875-.557L5.964.636 7.237.24 8.987 0zm20.917 3.34h6.044v6.044l-.318 1.272-.557 1.034-.875.955-1.034.715-1.272.478-.477.08h-1.67l-.954-.24-.955-.397-.954-.716-.716-.795-.556-.954-.319-1.034-.08-.398V8.112l.24-1.114.636-1.272.636-.795.716-.637 1.193-.636 1.272-.318zm1.511 17.019h-1.59l-.955.238-1.034.477-.954.716-.557.636-.556.875-.398 1.114-.16 1.113.08 1.113.16.636.397.955.557.875.556.556.716.557 1.273.636 1.193.239h5.805l.08-3.102v-2.465l-.08-.795-.239-.875-.556-1.114-.636-.795-.875-.716-1.273-.636-.954-.238z" clip-rule="evenodd"></path><path fill="#fff" d="M9.542 39.206h.875l.08 5.01.159.24h16.462l.238-.24.08-1.828h.954l.08 1.829.238.238.16-.238.476-.875.796-.875.795-.477.477-.16h1.193l.636.319.477.557.239.954v.875h3.817l-.238-.875-.319-.477-.318-.239-.715-.159-1.273.08v-.796l.557-.238h1.352l.716.318.636.557.398.795.158 1.034h1.273v-5.25l.08-.079h.795l.08.08v6.123H28.548l-.318-.238-.398.159-.238.08H10.258l-.477-.319-.239-.397-.08-.398v-5.01l.08-.08zM49.466 39.206h.795l.08.08v5.249l19.563-.08.239-.159.08-1.908h.954l.08 1.75.079.317h.238l.477-.954.637-.795.715-.557.796-.318h1.192l.637.318.477.557.238.795v1.909h-5.328l-.397-.239-.398.16-.239.079-20.04.08-.239.794-.556.637-.796.318-1.272.08-.716-.16-.795-.477-.477-.795-.08-.318v-1.83l.08-.079h.795l.08 1.272.158.716.16.398.715.238h.955l.636-.238.238-.398.08-.398.08-5.964.079-.08zM90.501 39.206h.875l.08 4.533.159.557.238.16 1.193.079v-5.328h.875l.08.08v6.123h-2.307l-.397-.239-.398.16-.239.079h-1.59l-.398-.239-.397.16-.239.079h-5.09l-.159.795-.318.477-.477.398-.557.159-.636.08h-.875v-.955l1.114-.08.716-.238.159-.239.08-.397H80.56l-.637-.318-.318-.398-.159-.398v-1.034l.318-.715.398-.398.398-.239.159-.08h1.034l.477.24.477.556.238.795v1.114l4.613-.08.159-.08.08-.238.079-2.227h.875l.08.08.079 2.147.318.318h.954l.16-.08.079-.238.08-4.93z"></path><path fill="#fff" fill-rule="evenodd" d="M69.744 0h-3.022l-.08.08v10.497l.24 1.193.397 1.034.636 1.113.716.875 1.034.954 1.192.716 1.273.477 1.193.239-.477.08-1.114.317-.954.398-1.034.636-.875.716-.556.636-.637.875-.715 1.51-.318 1.353v10.577h3.101l.08-9.702.08-.637.158-.556.557-1.114.557-.636.874-.636.955-.398.795-.159h.954l.477.08.955.318.874.556.557.557.557.875.397 1.193.08 10.259h3.181l.08-9.464.08-.716.158-.636.557-1.113.556-.636.716-.557.796-.398.954-.238h1.352l.636.159 1.272.636.796.795.477.796.318.795.159 1.034.08 9.543h3.18V23.937l-.079-.556-.239-.875-.397-.954-.636-1.114-.716-.875-1.034-.874-1.113-.716-1.273-.477-1.193-.239.716-.159 1.034-.318.875-.398 1.034-.636.636-.556.875-.955.636-.954.556-1.273.319-1.431V.08L93.76 0h-2.624l-.319.08-.079 8.906-.08 1.432-.159.636-.556 1.114-.477.556-.398.398-.795.556-1.114.398h-1.59l-.398-.08-.795-.318-1.034-.715-.477-.557-.477-.795-.318-.875-.16-1.113L81.833.08l-.08-.08h-3.021l-.08.08-.08 10.179-.159.636-.318.716-.556.875-.716.636-1.034.556-1.034.24h-1.113l-.477-.08-.875-.319-.875-.556-.556-.557-.478-.716-.318-.715-.238-1.114L69.744 0zM80.48 14.474l-.319-.16-.477.557-1.034.875-1.113.636-.954.398-1.432.318-.159.16 1.352.238 1.273.477 1.192.716.796.715.556.637.239.08.398-.478.556-.477.796-.636.874-.478 1.193-.477 1.193-.238.16-.16-.955-.158-1.034-.318-1.272-.637-1.114-.795-.715-.795z" clip-rule="evenodd"></path><path fill="#fff" d="M42.307 51.772h.557l.795.238.398.239.477.636.238.795v.875l-.238.795-.477.636-.796.398-.874.08-.716-.16-.636-.477-.318-.397-.239-.636-.08-.875.239-.955.318-.477.557-.477.795-.238zM87.082 51.772l.875.079.636.318.397.398.398.795.08 1.034-.16.716-.397.636-.557.477-.397.159-.875.08-.716-.16-.477-.318-.477-.556-.239-.557-.08-1.034.16-.795.477-.716.636-.398.716-.158zM54.157 51.93h1.034l.477.239.239.239.397-.319.318-.159h1.193l.557.319.238.397.08.318v3.42l-.08.08h-.795l-.08-.08-.079-3.26-.318-.319h-.636l-.398.239-.159.318-.08 3.022-.079.08h-.795l-.08-.08-.08-3.34-.079-.239h-.795l-.398.239-.238.397-.08 2.943-.08.08h-.795V52.01h.796v.318l.795-.398zM47.159 51.93h1.113l.477.319.16.159.556-.398.239-.08h1.113l.557.319.318.477v3.737h-.875l-.08-3.26-.159-.318-.159-.08h-.636l-.397.239-.16.159-.079.318-.08 2.942h-.874l-.08-3.26-.159-.318-.159-.08h-.636l-.398.239-.159.318-.08 3.022-.079.08h-.875V52.01h.875l.08.318.397-.318.239-.08zM25.369 51.772l1.113.079.557.318.238.318.08.318v2.784h.398v.715l-.398.16-.557-.08-.238-.239v-.159l-.796.398-.874.08-.796-.24-.397-.397-.08-.238v-.955l.318-.477.557-.318 1.193-.238.636-.16v-.556l-.239-.16h-1.033l-.239.08-.159.636h-.875v-.556l.239-.477.477-.398.398-.159.477-.08zM76.902 51.772l1.113.079.557.318.239.318.08.318v2.784h.397v.715l-.716.16-.398-.16-.08-.318-.794.398-.875.08-.796-.24-.397-.397-.08-.238v-.955l.318-.477.557-.318 1.67-.318.239-.239-.16-.477-.158-.08h-.955l-.318.08-.159.636h-.875v-.556l.239-.477.477-.398.398-.159.477-.08zM2.386 50.101h.954l.795.239.637.477.318.398.238.556v.478h-.875l-.397-.716-.477-.398-.318-.08h-.875l-.795.398-.319.477-.238.875v.875l.238.875.319.477.397.318.477.16h.716l.636-.319.398-.477.238-.795h.955l-.08.795-.397.795-.637.557-.715.318-1.034.08-.795-.16-.637-.318-.556-.556-.398-.796L0 54.078v-1.511l.318-1.034.557-.716.716-.477.795-.239zM36.581 50.101h.954l.796.239.477.318.556.636.16.398v.556h-.875l-.398-.715v-.16l-.318-.158-.477-.16h-.875l-.636.319-.398.477-.238.557-.08.477v.715l.239.955.318.477.398.318.477.16h.715l.796-.398.318-.557.159-.636h.954v.556l-.318.795-.636.716-.636.318-.716.16-1.034-.08-.795-.318-.637-.557-.397-.716-.239-.874v-1.352l.239-.796.477-.795.557-.477.715-.318.398-.08zM4.692 41.433h1.034l.398.159v.954l-.398-.08h-.954l-.478.319v.477l.637.398.795.397.318.398.08.636-.24.636-.397.398-.636.318-.636.16H2.068l-1.034-.319-.636-.477-.239-.318L0 45.012V43.5h.875l.159 1.352.238.397.716.318.398.08h1.51l.717-.16.397-.238v-.397l-1.272-.716-.398-.477-.08-.239v-.556l.24-.637.556-.556.636-.239zM91.852 51.93h1.114l.477.24.397.476.16.716v3.022l-.08.08h-.795l-.08-.08-.08-3.26-.158-.24-.239-.079h-.636l-.398.239-.238.318-.08.239-.08 2.863h-.874V52.01h.874l.08.318.398-.318.238-.08zM6.283 51.93h.874l.08 3.261.318.318h.795l.398-.238.239-.637.08-2.703h.874v4.373h-.875l-.08-.238-.556.318-.875.08-.716-.239-.397-.398-.239-.795V52.01l.08-.08zM59.484 51.93h.875l.08 3.022.159.398.238.16h.796l.397-.319.16-.398.079-2.863h.875l.08.08v4.294h-.876v-.318l-.715.398-.796.08-.636-.16-.477-.397-.239-.636v-3.34zM65.608 51.93h1.114l.477.239.397.477.08.239v3.578h-.796l-.079-.08-.08-3.26-.238-.238-.16-.08h-.635l-.398.239-.239.318-.08.238-.079 2.863h-.874V52.01h.874l.08.318.398-.318.238-.08zM15.826 51.93h.875l.08 3.182.159.318.159.08h.795l.398-.24.238-.556.08-2.783h.874v4.373h-.874l-.08-.238-.557.318-.874.08-.716-.239-.398-.398-.159-.397v-3.5zM72.13 51.772l.954.079.636.318.398.477.159.477v.319h-.955l-.238-.557-.239-.16h-.875l-.397.24-.239.476-.08.398v.636l.24.637.238.318.238.08h.796l.397-.319.239-.636h.874l.08.159-.318.875-.477.556-.557.239-.875.08-.715-.16-.637-.477-.397-.636-.16-.875.08-.875.239-.636.477-.636.636-.318.477-.08zM13.202 50.738h.954v1.272h.796v.796h-.796v2.783h.796v.875h-.875l-.557-.16-.238-.318-.08-.318v-2.862h-.716v-.796h.716v-1.272zM80.877 50.738h.875v1.272h.795v.796h-.795v2.783h.716l.08.08.079.636-.08.159h-.874l-.557-.16-.239-.397-.08-3.022-.715-.08.08-.795.636-.08.08-1.192zM77.697 39.206h.795l.08.08v6.124h-.955v-6.124l.08-.08zM41.99 39.206h.795l.08.08v6.123h-.955v-6.123l.08-.08z"></path><path fill="#05868E" d="M86.922 52.647h.715l.398.238.318.398.16.556v.557l-.24.716-.397.397-.239.08h-.715l-.398-.239-.318-.397-.16-.477v-.716l.24-.636.397-.398.239-.08zM42.229 52.646h.795l.557.478.238.636v.715l-.238.637-.557.477h-.795l-.477-.318-.239-.318-.08-.239v-1.193l.24-.477.397-.318.159-.08z"></path><path fill="#fff" d="M7.634 41.91h.875v4.056l-.238.716-.557.477-.716.159h-.477l-.08-.08v-.874l.716-.08.318-.318.08-.716.08-3.34zM22.268 51.93h.715v.875l-.874.239-.398.397-.159.557-.08 2.465h-.874V52.01h.874l.08.398.398-.319.318-.159zM28.629 50.42h.875v6.044h-.875V50.42zM10.736 50.42h.955v5.964l-.08.08h-.795l-.08-6.044z"></path><path fill="#05868E" d="M74.436 42.706h.557l.477.238.239.318.08.239v1.034h-3.182l.16-.477.477-.637.556-.477.636-.238zM31.651 42.706l.796.08.397.317.16.477v.955h-3.182l.08-.398.477-.636.636-.557.636-.238z"></path><path fill="#fff" d="M83.424 52.01h.875v4.454h-.875V52.01zM68.55 52.01h.876v4.454h-.875V52.01z"></path><path fill="#05868E" d="M80.877 42.706h.557l.397.238.16.398v1.193h-1.034l-.478-.239-.159-.318v-.557l.239-.477.318-.238zM26.244 54.237h.159v.795l-.398.398-.318.159h-.875l-.238-.239-.08-.318.239-.398.556-.238.955-.16zM77.855 54.237h.08v.795l-.319.398-.397.159h-.795l-.319-.239v-.556l.239-.24.477-.158 1.034-.16z"></path><path fill="#fff" d="M2.148 46.92h.875v1.034h-.875l-.08-.159V47l.08-.08zM83.424 50.42h.875v1.033h-.875V50.42zM68.55 50.42h.876v1.033h-.875V50.42zM3.42 46.92h.875v1.034H3.42V46.92zM88.514 40.081h.874v1.034h-.874V40.08zM87.24 40.081h.875v1.034h-.875V40.08zM31.492 40.081h.875v1.034h-.875V40.08z"></path></svg>