<svg width="245" height="147" viewBox="0 0 245 147" fill="none" xmlns="http://www.w3.org/2000/svg">
<path d="M108.28 0H116.562L116.769 0.207042V89.235H108.073V0.207042L108.28 0Z" fill="#006269"/>
<path fill-rule="evenodd" clip-rule="evenodd" d="M148.24 0H144.513L140.787 0.414084L137.681 1.24225L134.368 2.69154L131.47 4.55492L129.606 6.21125L127.743 8.28167L126.294 10.145L124.43 13.6648L123.395 16.7704L122.774 20.4971V24.0168L123.395 27.9506L124.223 30.4351L125.465 33.1267L127.329 36.0253L128.778 37.6816L131.47 40.1661L133.747 41.6154L137.06 43.2717L140.58 44.3069L142.029 44.721L139.13 45.3422L135.611 46.5844L132.712 48.2407L130.02 50.3112L127.743 52.7957L125.88 55.4872L124.223 58.7999L123.188 62.3196L122.774 65.2182V68.7379L123.395 72.4646L124.43 75.5703L125.673 78.0548L127.743 81.1604L130.434 83.8519L133.126 85.9223L135.818 87.3716L138.923 88.6139L142.029 89.235H167.288V63.9759L167.081 62.5266L166.046 59.0069L164.596 55.9013L162.526 52.7957L159.834 50.1041L157.764 48.4478L154.658 46.5844L151.967 45.5492L148.24 44.721V44.514L149.689 44.3069L152.588 43.4788L156.108 41.8224L159.213 39.752L162.112 36.8534L163.975 34.3689L165.425 31.6774L166.667 28.3647L167.288 25.2591V0H159.213L159.006 0.207042L158.799 24.4309L157.971 27.5366L157.143 29.1929L155.487 31.4704L153.002 33.7478L150.31 35.1971L147.205 36.0253H142.857L140.994 35.6112L138.509 34.576L136.232 33.1267L134.575 31.4704L132.919 29.1929L131.884 26.7084L131.263 23.8098V20.4971L131.884 17.8056L133.333 14.907L134.575 13.2507L137.06 10.9732L140.372 9.31688L143.064 8.69576L148.447 8.48871V0.207042L148.24 0ZM147.206 53.0025H143.065L140.581 53.6237L137.889 54.8659L135.405 56.7293L133.956 58.3856L132.506 60.6631L131.471 63.5617L131.057 66.8743L131.471 70.394L132.299 72.6715L133.956 75.5701L135.612 77.2264L137.475 78.6757L140.788 80.332L143.894 80.9532H159.008V65.011L158.387 62.3194L157.144 59.6279L155.488 57.5574L153.003 55.28L149.691 53.6237L147.206 53.0025Z" fill="#006269"/>
<path fill-rule="evenodd" clip-rule="evenodd" d="M23.3957 0H101.865L102.072 0.207042V24.4309L101.45 28.1577L100.208 31.6774L98.7589 34.3689L96.8955 36.8534L93.997 39.752L90.8913 41.8224L87.7857 43.2717L84.266 44.3069L82.8167 44.721L85.7153 45.3422L89.235 46.5844L92.1336 48.2407L94.204 49.8971L96.2744 51.7604L98.3448 54.452L100.208 57.7647L101.45 61.4914L101.865 63.3548L102.072 65.2182V89.235H76.6054L73.7069 88.6139L70.3942 87.3716L67.7027 85.9223L65.0111 83.8519L62.3196 81.1604L60.2491 78.0548L58.5928 74.535L57.7646 71.6365L57.3506 68.5308V65.6322L57.7646 62.3196L58.7999 58.7999L60.4562 55.4872L62.3196 52.7957L64.597 50.3112L67.2886 48.2407L69.7731 46.7914L72.8787 45.5492L76.6054 44.721L76.3984 44.514L73.4998 43.8929L71.0153 43.0647L67.7027 41.4084L65.2182 39.545L62.7337 37.2675L60.8703 34.783L59.0069 31.2633L57.9717 28.1577L57.3506 24.2239V21.1183L57.7646 17.8056L58.7999 14.4929L60.4562 11.1803L62.1125 8.48871L22.1535 8.69576L18.8408 9.52392L15.9422 10.9732L13.2507 13.0436L11.5943 14.907L9.938 17.8056L8.9028 20.4971L8.48871 22.7746V26.2943L9.10984 29.3999L10.145 32.0915L11.8014 34.576L13.0436 36.0253L13.4577 36.2323V36.6464L14.2859 37.0605L16.3563 38.5098L19.2549 39.752L21.7394 40.3731L29.607 40.5802L33.7478 41.4084L37.0605 42.6506L40.1661 44.3069L42.6506 46.1703L45.1351 48.4478L47.2055 51.1393L49.0689 54.2449L50.3111 57.3506L51.1393 60.8703L51.3464 62.5266V67.2886L50.7252 70.8083L49.483 74.535L48.0337 77.4336L45.9633 80.3322L43.6858 82.8167L41.2013 84.8871L38.0957 86.7505L34.576 88.1998L31.4703 89.028L30.2281 89.235H0V80.9533L29.1929 80.7463L32.5056 79.9181L35.4041 78.4688L37.8886 76.6055L39.752 74.535L41.4084 71.6365L42.2365 69.566L42.8576 66.2534V63.1477L42.0295 59.421L40.3731 56.1083L38.9239 54.2449L37.2675 52.5886L34.3689 50.7252L31.6774 49.69L28.5718 49.0689L20.9112 48.8619L16.9774 48.0337L13.8718 46.7914L10.5591 44.9281L8.48871 43.2717L6.41829 41.4084L4.34788 38.9239L2.4845 35.8182L0.828167 31.6774L0 27.5366V21.9464L0.621125 18.4267L1.86338 14.907L3.31267 12.0084L5.38309 9.10984L7.66054 6.62534L9.938 4.76196L12.2155 3.31267L15.5281 1.65633L18.8408 0.621125L23.3957 0ZM77.8506 8.69565H93.5858V24.4308L92.7576 27.7435L91.3083 30.435L89.0309 32.9195L86.3394 34.7829L83.0267 36.0252L81.7844 36.2322H77.4366L74.9521 35.6111L72.4676 34.5759L69.9831 32.7125L68.1197 30.6421L66.6704 28.1576L65.8422 25.466L65.6352 24.4308V21.1182L66.2563 18.2196L67.9126 14.9069L69.569 12.8365L71.4323 11.1802L74.538 9.52382L77.8506 8.69565ZM81.7844 53.0025H77.6436L75.1591 53.6237L72.4676 54.8659L69.9831 56.7293L68.5338 58.3856L67.0845 60.6631L66.0493 63.5617L65.6352 66.4602L65.8422 69.3588L66.2563 71.0152L67.2915 73.4997L68.7408 75.7771L70.1901 77.2264L72.0535 78.6757L75.3661 80.332L78.4718 80.9532H93.5858L93.7929 72.8785V66.4602L93.5858 64.3898L92.9647 62.1124L91.5154 59.2138L89.8591 57.1434L87.5816 55.28L84.2689 53.6237L81.7844 53.0025Z" fill="#006269"/>
<path d="M24.8433 102.072H27.1207L27.3278 115.115L27.7419 115.737H70.5995L71.2206 115.115L71.4277 110.353H73.9122L74.1192 115.115L74.7403 115.737L75.1544 115.115L76.3967 112.838L78.4671 110.56L80.5375 109.318L81.7798 108.904H84.8854L86.5417 109.732L87.784 111.182L88.4051 113.666V115.944H98.3431L97.722 113.666L96.8938 112.424L96.0656 111.803L94.2023 111.389L90.8896 111.596V109.525L92.3389 108.904H95.8586L97.722 109.732L99.3783 111.182L100.414 113.252L100.828 115.944H104.14V102.279L104.347 102.072H106.418L106.625 102.279V118.221H74.3263L73.4981 117.6L72.4629 118.014L71.8418 118.221H26.7066L25.4644 117.393L24.8433 116.358L24.6362 115.322V102.279L24.8433 102.072Z" fill="#006269"/>
<path d="M128.782 102.072H130.852L131.059 102.279V115.944L181.992 115.737L182.613 115.322L182.82 110.353H185.304L185.511 114.908L185.718 115.737H186.339L187.582 113.252L189.238 111.182L191.101 109.732L193.172 108.904H196.277L197.934 109.732L199.176 111.182L199.797 113.252V118.221H185.925L184.89 117.6L183.855 118.014L183.234 118.221L131.059 118.428L130.438 120.498L128.989 122.155L126.918 122.983L123.606 123.19L121.742 122.776L119.672 121.534L118.43 119.463L118.223 118.635V113.873L118.43 113.666H120.5L120.707 116.979L121.121 118.842L121.535 119.877L123.399 120.498H125.883L127.54 119.877L128.161 118.842L128.368 117.807L128.575 102.279L128.782 102.072Z" fill="#006269"/>
<path d="M235.615 102.072H237.893L238.1 113.873L238.514 115.322L239.135 115.737L242.241 115.944V102.072H244.518L244.725 102.279V118.221H238.721L237.686 117.6L236.65 118.014L236.029 118.221H231.888L230.853 117.6L229.818 118.014L229.197 118.221H215.946L215.532 120.291L214.704 121.534L213.462 122.569L212.012 122.983L210.356 123.19H208.079V120.706L210.977 120.498L212.841 119.877L213.255 119.256L213.462 118.221H209.735L208.079 117.393L207.251 116.358L206.836 115.322V112.631L207.665 110.768L208.7 109.732L209.735 109.111L210.149 108.904H212.841L214.083 109.525L215.325 110.975L215.946 113.045V115.944L227.955 115.737L228.369 115.529L228.576 114.908L228.783 109.111H231.06L231.267 109.318L231.474 114.908L232.303 115.737H234.787L235.201 115.529L235.408 114.908L235.615 102.072Z" fill="#006269"/>
<path fill-rule="evenodd" clip-rule="evenodd" d="M181.575 0H173.708L173.5 0.207042V27.5366L174.122 30.6422L175.157 33.3337L176.813 36.2323L178.677 38.5098L181.368 40.9943L184.474 42.8577L187.786 44.0999L190.892 44.721L189.65 44.9281L186.751 45.7562L184.267 46.7914L181.575 48.4478L179.298 50.3112L177.848 51.9675L176.192 54.2449L174.329 58.1787L173.5 61.6985V89.235H181.575L181.782 63.9759L181.989 62.3196L182.403 60.8703L183.853 57.9717L185.302 56.3154L187.579 54.659L190.064 53.6238L192.134 53.2097H194.619L195.861 53.4168L198.346 54.2449L200.623 55.6942L202.072 57.1435L203.522 59.421L204.557 62.5266L204.764 89.235H213.045L213.253 64.597L213.46 62.7337L213.874 61.0773L215.323 58.1787L216.772 56.5224L218.636 55.0731L220.706 54.0379L223.191 53.4168H226.71L228.367 53.8309L231.679 55.4872L233.75 57.5576L234.992 59.628L235.82 61.6985L236.234 64.39L236.441 89.235H244.723V62.3196L244.516 60.8703L243.895 58.5928L242.859 56.1083L241.203 53.2097L239.34 50.9323L236.648 48.6548L233.75 46.7914L230.437 45.5492L227.331 44.9281L229.195 44.514L231.886 43.6858L234.164 42.6506L236.855 40.9943L238.512 39.545L240.789 37.0605L242.445 34.576L243.895 31.2633L244.723 27.5366V0.207042L244.102 0H237.269L236.441 0.207042L236.234 23.3957L236.027 27.1225L235.613 28.7788L234.164 31.6774L232.921 33.1267L231.886 34.1619L229.816 35.6112L226.917 36.6464H222.776L221.741 36.4394L219.671 35.6112L216.979 33.7478L215.737 32.2985L214.495 30.2281L213.667 27.9506L213.253 25.0521L213.045 0.207042L212.838 0H204.971L204.764 0.207042L204.557 26.7084L204.143 28.3647L203.315 30.2281L201.865 32.5056L200.002 34.1619L197.31 35.6112L194.619 36.2323H191.72L190.478 36.0253L188.2 35.1971L185.923 33.7478L184.474 32.2985L183.231 30.4351L182.403 28.5718L181.782 25.6732L181.575 0ZM209.524 37.6816L208.696 37.2676L207.454 38.7169L204.762 40.9943L201.864 42.6506L199.379 43.6859L195.652 44.514L195.238 44.9281L198.758 45.5492L202.071 46.7915L205.176 48.6549L207.247 50.5182L208.696 52.1746L209.317 52.3816L210.352 51.1394L211.802 49.8971L213.872 48.2408L216.149 46.9985L219.255 45.7563L222.361 45.1351L222.775 44.7211L220.29 44.307L217.599 43.4788L214.286 41.8225L211.388 39.7521L209.524 37.6816Z" fill="#006269"/>
<path d="M110.144 134.784H111.593L113.664 135.405L114.699 136.026L115.941 137.683L116.562 139.753V142.031L115.941 144.101L114.699 145.757L112.628 146.793L110.351 147L108.487 146.586L106.831 145.343L106.003 144.308L105.382 142.652L105.175 140.374L105.796 137.89L106.624 136.648L108.073 135.405L110.144 134.784Z" fill="#006269"/>
<path d="M226.713 134.784L228.99 134.991L230.646 135.819L231.682 136.855L232.717 138.925L232.924 141.617L232.51 143.48L231.475 145.136L230.025 146.379L228.99 146.793L226.713 147L224.849 146.586L223.607 145.757L222.365 144.308L221.744 142.859L221.537 140.167L221.951 138.097L223.193 136.233L224.849 135.198L226.713 134.784Z" fill="#006269"/>
<path d="M140.994 135.198H143.686L144.928 135.819L145.549 136.44L146.584 135.612L147.413 135.198H150.518L151.968 136.026L152.589 137.061L152.796 137.889V146.792L152.589 146.999H150.518L150.311 146.792L150.104 138.303L149.276 137.475H147.62L146.584 138.096L146.17 138.925L145.963 146.792L145.756 146.999H143.686L143.479 146.792L143.272 138.096L143.065 137.475H140.994L139.959 138.096L139.338 139.132L139.131 146.792L138.924 146.999H136.854V135.405H138.924V136.233L140.994 135.198Z" fill="#006269"/>
<path d="M122.776 135.198H125.674L126.916 136.026L127.331 136.44L128.78 135.405L129.401 135.198H132.3L133.749 136.026L134.577 137.268V146.999H132.3L132.092 138.51L131.678 137.682L131.264 137.475H129.608L128.573 138.096L128.159 138.51L127.952 139.339L127.745 146.999H125.467L125.26 138.51L124.846 137.682L124.432 137.475H122.776L121.74 138.096L121.326 138.925L121.119 146.792L120.912 146.999H118.635V135.405H120.912L121.119 136.233L122.154 135.405L122.776 135.198Z" fill="#006269"/>
<path d="M66.0461 134.784L68.9447 134.991L70.394 135.819L71.0151 136.648L71.2222 137.476V144.722H72.2574V146.586L71.2222 147L69.7729 146.793L69.1518 146.171V145.757L67.0813 146.793L64.8039 147L62.7335 146.379L61.6983 145.343L61.4912 144.722V142.238L62.3194 140.995L63.7687 140.167L66.8743 139.546L68.5306 139.132V137.683L67.9095 137.269H65.218L64.5968 137.476L64.1828 139.132H61.9053V137.683L62.5264 136.441L63.7687 135.405L64.8039 134.991L66.0461 134.784Z" fill="#006269"/>
<path d="M200.21 134.784L203.109 134.991L204.558 135.819L205.179 136.648L205.386 137.476V144.722H206.421V146.586L204.558 147L203.523 146.586L203.316 145.757L201.245 146.793L198.968 147L196.898 146.379L195.862 145.343L195.655 144.722V142.238L196.483 140.995L197.933 140.167L202.281 139.339L202.902 138.718L202.488 137.476L202.074 137.269H199.589L198.761 137.476L198.347 139.132H196.069V137.683L196.69 136.441L197.933 135.405L198.968 134.991L200.21 134.784Z" fill="#006269"/>
<path d="M6.21125 130.436H8.69575L10.7662 131.057L12.4225 132.299L13.2507 133.335L13.8718 134.784V136.026H11.5943L10.5591 134.163L9.31688 133.128L8.48871 132.921H6.21125L4.14084 133.956L3.31267 135.198L2.69154 137.475V139.753L3.31267 142.03L4.14084 143.273L5.17604 144.101L6.41829 144.515H8.28167L9.93801 143.687L10.9732 142.444L11.5943 140.374H14.0788L13.8718 142.444L12.8366 144.515L11.1803 145.964L9.31688 146.792L6.62534 146.999L4.55492 146.585L2.89858 145.757L1.44929 144.308L0.414084 142.237L0 140.788V136.854L0.828167 134.163L2.27746 132.299L4.14084 131.057L6.21125 130.436Z" fill="#006269"/>
<path d="M95.2371 130.436H97.7216L99.7921 131.057L101.034 131.885L102.484 133.542L102.898 134.577V136.026H100.62L99.585 134.163V133.749L98.7568 133.335L97.5146 132.921H95.2371L93.5808 133.749L92.5456 134.991L91.9245 136.44L91.7174 137.682V139.546L92.3385 142.03L93.1667 143.273L94.2019 144.101L95.4442 144.515H97.3075L99.378 143.48L100.206 142.03L100.62 140.374H103.105V141.823L102.277 143.894L100.62 145.757L98.9639 146.585L97.1005 146.999L94.409 146.792L92.3385 145.964L90.6822 144.515L89.647 142.651L89.0259 140.374V136.854L89.647 134.784L90.8893 132.713L92.3385 131.471L94.2019 130.643L95.2371 130.436Z" fill="#006269"/>
<path d="M12.2155 107.869H14.907L15.9422 108.283V110.767L14.907 110.56H12.4225L11.1803 111.388V112.631L12.8366 113.666L14.907 114.701L15.7352 115.736L15.9422 117.393L15.3211 119.049L14.2859 120.084L12.6295 120.912L10.9732 121.326H5.38309L2.69154 120.498L1.03521 119.256L0.414084 118.428L0 117.186V113.252H2.27746L2.69154 116.771L3.31267 117.807L5.17604 118.635L6.21125 118.842H10.145L12.0084 118.428L13.0436 117.807V116.771L9.73096 114.908L8.69576 113.666L8.48871 113.045V111.595L9.10984 109.939L10.5591 108.49L12.2155 107.869Z" fill="#006269"/>
<path d="M239.132 135.198H242.031L243.273 135.819L244.308 137.061L244.722 138.925V146.792L244.515 146.999H242.445L242.238 146.792L242.031 138.303L241.617 137.682L240.995 137.475H239.339L238.304 138.096L237.683 138.925L237.476 139.546L237.269 146.999H234.991V135.405H237.269L237.476 136.233L238.511 135.405L239.132 135.198Z" fill="#006269"/>
<path d="M16.3565 135.198H18.6339L18.841 143.686L19.6691 144.515H21.7395L22.7748 143.894L23.3959 142.237L23.6029 135.198H25.8804V146.585H23.6029L23.3959 145.964L21.9466 146.792L19.6691 146.999L17.8057 146.378L16.7705 145.343L16.1494 143.272V135.405L16.3565 135.198Z" fill="#006269"/>
<path d="M154.864 135.198H157.142L157.349 143.065L157.763 144.101L158.384 144.515H160.454L161.49 143.686L161.904 142.651L162.111 135.198H164.388L164.595 135.405V146.585H162.318V145.757L160.454 146.792L158.384 146.999L156.728 146.585L155.485 145.55L154.864 143.894V135.198Z" fill="#006269"/>
<path d="M170.807 135.198H173.705L174.948 135.819L175.983 137.061L176.19 137.682V146.999H174.12L173.912 146.792L173.705 138.303L173.084 137.682L172.67 137.475H171.014L169.979 138.096L169.358 138.925L169.151 139.546L168.943 146.999H166.666V135.405H168.943L169.151 136.233L170.186 135.405L170.807 135.198Z" fill="#006269"/>
<path d="M41.2017 135.198H43.4791L43.6862 143.479L44.1002 144.308L44.5143 144.515H46.5847L47.62 143.894L48.2411 142.444L48.4481 135.198H50.7256V146.585H48.4481L48.2411 145.964L46.7918 146.792L44.5143 146.999L42.651 146.378L41.6157 145.343L41.2017 144.308V135.198Z" fill="#006269"/>
<path d="M187.785 134.784L190.269 134.991L191.926 135.819L192.961 137.062L193.375 138.304V139.132H190.891L190.269 137.683L189.648 137.269H187.371L186.336 137.89L185.715 139.132L185.507 140.167V141.824L186.129 143.48L186.75 144.308L187.371 144.515H189.441L190.476 143.687L191.098 142.031H193.375L193.582 142.445L192.754 144.722L191.512 146.171L190.062 146.793L187.785 147L185.922 146.586L184.265 145.343L183.23 143.687L182.816 141.41L183.023 139.132L183.644 137.476L184.886 135.819L186.543 134.991L187.785 134.784Z" fill="#006269"/>
<path d="M34.3707 132.093H36.8552V135.405H38.9256V137.476H36.8552V144.722H38.9256V147H36.6482L35.1989 146.586L34.5777 145.758L34.3707 144.929V137.476H32.5073V135.405H34.3707V132.093Z" fill="#006269"/>
<path d="M210.559 132.093H212.837V135.405H214.907V137.476H212.837V144.722H214.7L214.907 144.929L215.114 146.586L214.907 147H212.63L211.18 146.586L210.559 145.55L210.352 137.683L208.489 137.476L208.696 135.405L210.352 135.198L210.559 132.093Z" fill="#006269"/>
<path d="M202.279 102.072H204.349L204.556 102.279V118.221H202.072V102.279L202.279 102.072Z" fill="#006269"/>
<path d="M109.317 102.072H111.388L111.595 102.279V118.221H109.11V102.279L109.317 102.072Z" fill="#006269"/>
<path d="M226.296 137.062H228.159L229.194 137.683L230.022 138.718L230.436 140.168V141.617L229.815 143.48L228.78 144.516L228.159 144.723H226.296L225.26 144.101L224.432 143.066L224.018 141.824V139.961L224.639 138.304L225.674 137.269L226.296 137.062Z" fill="#E7F0F1"/>
<path d="M109.94 137.062H112.01L113.459 138.304L114.08 139.961V141.824L113.459 143.48L112.01 144.723H109.94L108.697 143.894L108.076 143.066L107.869 142.445V139.339L108.49 138.097L109.525 137.269L109.94 137.062Z" fill="#E7F0F1"/>
<path d="M19.8747 109.111H22.1521V119.67L21.531 121.533L20.0817 122.776L18.2183 123.19H16.9761L16.769 122.983V120.705L18.6324 120.498L19.4606 119.67L19.6676 117.807L19.8747 109.111Z" fill="#006269"/>
<path d="M57.9724 135.198H59.8358V137.475L57.5583 138.096L56.5231 139.132L56.109 140.581L55.902 146.999H53.6245V135.405H55.902L56.109 136.44L57.1442 135.612L57.9724 135.198Z" fill="#006269"/>
<path d="M74.5337 131.265H76.8112V147H74.5337V131.265Z" fill="#006269"/>
<path d="M27.9517 131.265H30.4362V146.793L30.2291 147H28.1587L27.9517 131.265Z" fill="#006269"/>
<path d="M193.791 111.182H195.241L196.483 111.803L197.104 112.631L197.311 113.252V115.944H189.029L189.443 114.701L190.686 113.045L192.135 111.803L193.791 111.182Z" fill="#E7F0F1"/>
<path d="M82.4026 111.182L84.473 111.389L85.5082 112.217L85.9223 113.459V115.944H77.6406L77.8477 114.908L79.0899 113.252L80.7463 111.803L82.4026 111.182Z" fill="#E7F0F1"/>
<path d="M217.189 135.405H219.466V146.999H217.189V135.405Z" fill="#006269"/>
<path d="M178.468 135.405H180.746V146.999H178.468V135.405Z" fill="#006269"/>
<path d="M210.559 111.182H212.008L213.043 111.803L213.457 112.838V115.944H210.766L209.523 115.322L209.109 114.494V113.045L209.731 111.803L210.559 111.182Z" fill="#E7F0F1"/>
<path d="M68.3244 141.203H68.7385V143.273L67.7033 144.308L66.8752 144.722H64.5977L63.9766 144.101L63.7695 143.273L64.3907 142.238L65.8399 141.617L68.3244 141.203Z" fill="#E7F0F1"/>
<path d="M202.691 141.203H202.898V143.273L202.07 144.308L201.035 144.722H198.964L198.136 144.101V142.652L198.757 142.031L200 141.617L202.691 141.203Z" fill="#E7F0F1"/>
<path d="M5.59181 122.155H7.86927V124.846H5.59181L5.38477 124.432V122.362L5.59181 122.155Z" fill="#006269"/>
<path d="M217.189 131.265H219.466V133.957H217.189V131.265Z" fill="#006269"/>
<path d="M178.468 131.265H180.746V133.957H178.468V131.265Z" fill="#006269"/>
<path d="M8.90332 122.155H11.1808V124.846H8.90332V122.155Z" fill="#006269"/>
<path d="M230.44 104.349H232.718V107.04H230.44V104.349Z" fill="#006269"/>
<path d="M227.125 104.349H229.402V107.04H227.125V104.349Z" fill="#006269"/>
<path d="M81.9883 104.349H84.2657V107.04H81.9883V104.349Z" fill="#006269"/>
</svg>
